{"title":"Interview.With.The.Vampire-The.Vampire.Chronicles.1994.DVDRip.Xv","uid":5609384,"size":732909724,"categoryP":"video","categoryS":"movies","magnet":"?xt=urn:btih:83cb4919bf3d54730620efc18377c2dc86e79891&amp;dn=Interview.With.The.Vampire-The.Vampire.Chronicles.1994.DVDRip.Xv&amp;tr=udp%3A%2F%2Ftracker.openbittorrent.com%3A80&amp;tr=udp%3A%2F%2Fopen.demonii.com%3A1337&amp;tr=udp%3A%2F%2Ftracker.coppersurfer.tk%3A6969&amp;tr=udp%3A%2F%2Fexodus.desync.com%3A6969","seeders":1,"leechers":0,"uploader":"666BEZMOGNM666","files":3,"time":1275773750,"description":"Format                           : AVI\nFormat/Info                      : Audio Video Interleave\nFile size                        : 699 MiB\nDuration                         : 2h 2mn\nOverall bit rate                 : 797 Kbps\nWriting application              : VirtualDubMod 1.5.10.2 (build 2540/release)\nWriting library                  : VirtualDubMod build 2540/release\n\nVideo\nID                               : 0\nFormat                           : MPEG-4 Visual\nFormat profile                   : Advanced Simple@L5\nFormat settings, BVOP            : Yes\nFormat settings, QPel            : No\nFormat settings, GMC             : No warppoints\nFormat settings, Matrix          : Default (H.263)\nMuxing mode                      : Packed bitstream\nCodec ID                         : DIVX\nCodec ID/Info                    : Project Mayo\nCodec ID/Hint                    : DivX 4\nDuration                         : 2h 2mn\nBit rate                         : 678 Kbps\nWidth                            : 672 pixels\nHeight                           : 376 pixels\nDisplay aspect ratio             : 16:9\nFrame rate                       : 23.976 fps\nResolution                       : 8 bits\nColorimetry                      : 4:2:0\nScan type                        : Progressive\nBits/(Pixel*Frame)               : 0.112\nStream size                      : 594 MiB (85%)\nWriting library                  : XviD 1.2.1 (UTC 2008-12-04)\n\nAudio\nID                               : 1\nFormat                           : MPEG Audio\nFormat version                   : Version 1\nFormat profile                   : Layer 3\nFormat_Settings_Mode             : Joint stereo\nFormat_Settings_ModeExtension    : MS Stereo\nCodec ID                         : 55\nCodec ID/Hint                    : MP3\nDuration                         : 2h 2mn\nBit rate mode                    : Variable\nBit rate                         : 107 Kbps\nChannel(s)                       : 2 channels\nSampling rate                    : 44.1 KHz\nStream size                      : 93.7 MiB (13%)\nAlignment                        : Aligned on interleaves\nInterleave, duration             : 26 ms (0.63 video frame)\nInterleave, preload duration     : 483 ms","torrent":{"xt":"urn:btih:83cb4919bf3d54730620efc18377c2dc86e79891","amp;dn":"Interview.With.The.Vampire-The.Vampire.Chronicles.1994.DVDRip.Xv","amp;tr":["udp%3A%2F%2Ftracker.openbittorrent.com%3A80","udp%3A%2F%2Fopen.demonii.com%3A1337","udp%3A%2F%2Ftracker.coppersurfer.tk%3A6969","udp%3A%2F%2Fexodus.desync.com%3A6969"],"infoHash":"83cb4919bf3d54730620efc18377c2dc86e79891","infoHashBuffer":{"type":"Buffer","data":[131,203,73,25,191,61,84,115,6,32,239,193,131,119,194,220,134,231,152,145]},"announce":[],"urlList":[]}}